<svg xmlns="http://www.w3.org/2000/svg" viewBox="0 0 1200 360">
<defs>
  <linearGradient id="bg" x1="0" y1="0" x2="1" y2="1">
    <stop offset="0" stop-color="#050A0F"/><stop offset=".55" stop-color="#0D1B2A"/><stop offset="1" stop-color="#123524"/>
  </linearGradient>
  <linearGradient id="line" x1="0" x2="1"><stop stop-color="#7FC97F" stop-opacity="0"/><stop offset=".5" stop-color="#7FC97F"/><stop offset="1" stop-color="#7FC97F" stop-opacity="0"/></linearGradient>
  <filter id="glow"><feGaussianBlur stdDeviation="3" result="b"/><feMerge><feMergeNode in="b"/><feMergeNode in="SourceGraphic"/></feMerge></filter>
</defs>
<rect width="1200" height="360" rx="28" fill="url(#bg)"/>
<g opacity=".18" stroke="#7FC97F" fill="none">
  <path d="M0 70H260l35 35h170M1200 290H930l-45-45H720M90 330l120-120h130M1080 30L930 180H800"/>
  <circle cx="260" cy="105" r="5" fill="#7FC97F"/><circle cx="930" cy="245" r="5" fill="#7FC97F"/>
</g>
<g fill="#7FC97F" opacity=".35">
  <circle cx="90" cy="75" r="2"/><circle cx="112" cy="75" r="2"/><circle cx="134" cy="75" r="2"/>
  <circle cx="1070" cy="290" r="2"/><circle cx="1092" cy="290" r="2"/><circle cx="1114" cy="290" r="2"/>
</g>
<g transform="translate(72 78)" filter="url(#glow)">
  <rect x="0" y="0" width="92" height="92" rx="22" fill="#0A151A" stroke="#7FC97F" stroke-width="2"/>
  <circle cx="46" cy="43" r="24" fill="none" stroke="#7FC97F" stroke-width="3"/>
  <circle cx="37" cy="38" r="4" fill="#7FC97F"/><circle cx="55" cy="38" r="4" fill="#7FC97F"/>
  <path d="M34 52q12 10 24 0M46 8v10M22 20l9 8M70 20l-9 8" fill="none" stroke="#7FC97F" stroke-width="3" stroke-linecap="round"/>
  <path d="M16 43H7M85 43h-9M25 70l-7 8M67 70l7 8" stroke="#7FC97F" stroke-width="3" stroke-linecap="round"/>
</g>
<text x="205" y="125" fill="#FFFFFF" font-family="Arial, sans-serif" font-size="48" font-weight="800">KRISH BISHWAKARMA</text>
<text x="208" y="165" fill="#7FC97F" font-family="Arial, sans-serif" font-size="22" font-weight="700">AI &amp; ROBOTICS STUDENT</text>
<rect x="207" y="192" width="700" height="2" fill="url(#line)"/>
<text x="208" y="230" fill="#D8DEE9" font-family="Arial, sans-serif" font-size="18">BUILDING WITH CODE • ELECTRONICS • ROBOTICS</text>
<text x="208" y="260" fill="#8B949E" font-family="Arial, sans-serif" font-size="15">Learn by building. Test ideas. Make physical systems move.</text>
<g transform="translate(208 285)">
  <rect width="140" height="34" rx="17" fill="#7FC97F"/><text x="70" y="23" text-anchor="middle" fill="#050A0F" font-family="Arial" font-size="13" font-weight="800">BUILD • LEARN</text>
  <rect x="152" width="140" height="34" rx="17" fill="#163A28" stroke="#7FC97F"/><text x="222" y="23" text-anchor="middle" fill="#7FC97F" font-family="Arial" font-size="13" font-weight="800">AI • ROBOTICS</text>
</g>
</svg>